<svg width="62" height="62" viewBox="0 0 62 62" fill="none" xmlns="http://www.w3.org/2000/svg">
<rect x="1.5" y="1.5" width="59" height="59" rx="29.5" fill="url(#paint0_radial_24_3157)"/>
<rect x="1.5" y="1.5" width="59" height="59" rx="29.5" stroke="url(#paint1_linear_24_3157)" stroke-width="3"/>
<path d="M39.75 43.25H38V38.875C37.9986 37.7151 37.5372 36.6031 36.7171 35.7829C35.8969 34.9628 34.7849 34.5014 33.625 34.5H28.375C27.2151 34.5014 26.1031 34.9628 25.2829 35.7829C24.4628 36.6031 24.0014 37.7151 24 38.875V43.25H22.25V38.875C22.2523 37.2513 22.8984 35.6947 24.0465 34.5465C25.1947 33.3984 26.7513 32.7523 28.375 32.75H33.625C35.2487 32.7523 36.8053 33.3984 37.9535 34.5465C39.1016 35.6947 39.7477 37.2513 39.75 38.875V43.25ZM36.25 22.25V25.75C36.25 26.7151 35.4651 27.5 34.5 27.5H33.625C33.3929 27.5 33.1704 27.5922 33.0063 27.7563C32.8422 27.9204 32.75 28.1429 32.75 28.375C32.75 28.6071 32.8422 28.8296 33.0063 28.9937C33.1704 29.1578 33.3929 29.25 33.625 29.25H34.5C36.4303 29.25 38 27.6803 38 25.75V22.25H36.25ZM31 31C27.6225 31 24.875 28.2525 24.875 24.875C24.875 21.4975 27.6225 18.75 31 18.75C32.7404 18.75 34.4037 19.4938 35.5649 20.7914L34.2611 21.9586C33.8508 21.4997 33.3482 21.1326 32.7862 20.8813C32.2243 20.6299 31.6156 20.5 31 20.5C28.5876 20.5 26.625 22.4626 26.625 24.875C26.625 27.2874 28.5876 29.25 31 29.25V31Z" fill="#B59A00"/>
<defs>
<radialGradient id="paint0_radial_24_3157" cx="0" cy="0" r="1" gradientUnits="userSpaceOnUse" gradientTransform="translate(31.1 31.1) rotate(90.0157) scale(91.1)">
<stop stop-color="#FFFED5"/>
<stop offset="1" stop-color="#F9F916" stop-opacity="0.55"/>
</radialGradient>
<linearGradient id="paint1_linear_24_3157" x1="39.5749" y1="-4.79999" x2="-22.925" y2="83.2" gradientUnits="userSpaceOnUse">
<stop stop-color="#F9CC16" stop-opacity="0.3"/>
<stop offset="1" stop-color="#EAD80C"/>
</linearGradient>
</defs>
</svg>
