<svg width="32" height="32" viewBox="0 0 32 32" fill="none" xmlns="http://www.w3.org/2000/svg">
<path d="M21.65 12.8969L21.6563 12.8906L20.575 11.5063C20.5549 11.4804 20.5299 11.4587 20.5015 11.4425C20.473 11.4262 20.4416 11.4158 20.4091 11.4117C20.3766 11.4077 20.3436 11.4101 20.312 11.4188C20.2804 11.4275 20.2508 11.4423 20.225 11.4625L18.65 12.6906L16.4469 9.875C16.4268 9.84911 16.4018 9.82743 16.3733 9.81122C16.3449 9.795 16.3135 9.78456 16.281 9.78049C16.2484 9.77643 16.2154 9.77882 16.1839 9.78753C16.1523 9.79624 16.1227 9.8111 16.0969 9.83125L14.9125 10.7594C14.8866 10.7795 14.8649 10.8044 14.8487 10.8329C14.8325 10.8614 14.8221 10.8928 14.818 10.9253C14.8139 10.9578 14.8163 10.9908 14.825 11.0224C14.8337 11.054 14.8486 11.0835 14.8688 11.1094L17.0719 13.9281L17.0656 13.9313L18.1469 15.3156C18.2313 15.425 18.3875 15.4438 18.4969 15.3594L20.0719 14.1313L22.075 16.6938C22.1594 16.8031 22.3156 16.8219 22.425 16.7375L23.6094 15.8125C23.7188 15.7281 23.7375 15.5719 23.6531 15.4625L21.65 12.8969ZM19 3.5C13.7531 3.5 9.5 7.75313 9.5 13C9.5 15.1969 10.2469 17.2188 11.4969 18.8281L3.57188 26.7531C3.52535 26.8001 3.49925 26.8636 3.49925 26.9297C3.49925 26.9958 3.52535 27.0593 3.57188 27.1063L4.89375 28.4281C4.99063 28.525 5.15 28.525 5.24688 28.4281L13.1719 20.5031C14.7813 21.7531 16.8031 22.5 19 22.5C24.2469 22.5 28.5 18.2469 28.5 13C28.5 7.75313 24.2469 3.5 19 3.5ZM24.0375 18.0375C22.6938 19.3844 20.9031 20.125 19 20.125C17.0969 20.125 15.3063 19.3844 13.9625 18.0375C12.6156 16.6938 11.875 14.9031 11.875 13C11.875 11.0969 12.6156 9.30625 13.9625 7.9625C15.3063 6.61563 17.0969 5.875 19 5.875C20.9031 5.875 22.6938 6.61563 24.0375 7.9625C25.3844 9.30625 26.125 11.0969 26.125 13C26.125 14.9031 25.3844 16.6938 24.0375 18.0375Z" fill="#F97316"/>
</svg>
