<svg width="392" height="32" viewBox="0 0 392 32" fill="none" xmlns="http://www.w3.org/2000/svg">
<path d="M1.2 23.416C1.568 23.4 1.872 23.352 2.112 23.272C2.368 23.192 2.56 23.008 2.688 22.72C2.832 22.432 2.904 21.968 2.904 21.328V12.136C2.904 11.704 2.912 11.288 2.928 10.888C2.96 10.488 2.984 10.184 3 9.976C2.744 9.992 2.424 10.008 2.04 10.024C1.656 10.024 1.376 10.032 1.2 10.048V8.2C2.336 8.184 3.472 8.176 4.608 8.176C5.744 8.176 6.88 8.168 8.016 8.152C9.424 8.136 10.648 8.32 11.688 8.704C12.744 9.088 13.552 9.68 14.112 10.48C14.688 11.28 14.96 12.32 14.928 13.6C14.912 14.24 14.76 14.872 14.472 15.496C14.184 16.104 13.76 16.664 13.2 17.176C12.64 17.672 11.936 18.08 11.088 18.4C10.24 18.72 9.248 18.896 8.112 18.928C7.76 18.944 7.448 18.952 7.176 18.952C6.92 18.952 6.656 18.944 6.384 18.928V21.04C6.384 21.488 6.376 21.912 6.36 22.312C6.344 22.712 6.32 23.016 6.288 23.224C6.464 23.208 6.688 23.2 6.96 23.2C7.232 23.184 7.496 23.176 7.752 23.176C8.024 23.16 8.216 23.152 8.328 23.152V25H1.2V23.416ZM6.384 17.128C6.56 17.144 6.736 17.16 6.912 17.176C7.088 17.192 7.272 17.2 7.464 17.2C8.344 17.2 9.056 17.056 9.6 16.768C10.16 16.464 10.568 16.032 10.824 15.472C11.08 14.896 11.208 14.2 11.208 13.384C11.208 12.584 11.096 11.944 10.872 11.464C10.664 10.984 10.392 10.632 10.056 10.408C9.72 10.168 9.368 10.016 9 9.952C8.632 9.872 8.296 9.832 7.992 9.832C7.656 9.832 7.368 9.872 7.128 9.952C6.888 10.032 6.704 10.208 6.576 10.48C6.448 10.752 6.384 11.168 6.384 11.728V17.128ZM24.5201 25.384C23.0001 25.384 21.7041 25.128 20.6321 24.616C19.5761 24.104 18.7201 23.424 18.0641 22.576C17.4081 21.712 16.9281 20.76 16.6241 19.72C16.3201 18.68 16.1681 17.64 16.1681 16.6C16.1681 15.592 16.3361 14.576 16.6721 13.552C17.0241 12.512 17.5441 11.56 18.2321 10.696C18.9361 9.832 19.8161 9.136 20.8721 8.608C21.9281 8.08 23.1681 7.816 24.5921 7.816C26.0481 7.816 27.3041 8.08 28.3601 8.608C29.4161 9.136 30.2801 9.84 30.9521 10.72C31.6241 11.584 32.1201 12.528 32.4401 13.552C32.7761 14.576 32.9441 15.592 32.9441 16.6C32.9441 17.592 32.7681 18.6 32.4161 19.624C32.0801 20.648 31.5601 21.6 30.8561 22.48C30.1681 23.344 29.2961 24.048 28.2401 24.592C27.1841 25.12 25.9441 25.384 24.5201 25.384ZM24.7841 23.632C25.6161 23.632 26.3121 23.432 26.8721 23.032C27.4321 22.616 27.8801 22.08 28.2161 21.424C28.5521 20.768 28.7921 20.056 28.9361 19.288C29.0801 18.504 29.1521 17.744 29.1521 17.008C29.1521 15.904 29.0561 14.896 28.8641 13.984C28.6721 13.072 28.3761 12.288 27.9761 11.632C27.5761 10.96 27.0641 10.448 26.4401 10.096C25.8321 9.728 25.1121 9.552 24.2801 9.568C23.4641 9.584 22.7761 9.808 22.2161 10.24C21.6561 10.656 21.2081 11.2 20.8721 11.872C20.5361 12.528 20.2961 13.248 20.1521 14.032C20.0081 14.816 19.9361 15.576 19.9361 16.312C19.9361 17.064 20.0161 17.864 20.1761 18.712C20.3521 19.56 20.6241 20.36 20.9921 21.112C21.3601 21.864 21.8561 22.472 22.4801 22.936C23.1041 23.4 23.8721 23.632 24.7841 23.632Z" fill="#F97316"/>
<path d="M44.6694 13.576C44.5254 12.68 44.2694 11.936 43.9014 11.344C43.5334 10.736 43.0614 10.28 42.4854 9.976C41.9254 9.672 41.2694 9.528 40.5174 9.544C39.8294 9.544 39.2214 9.736 38.6934 10.12C38.1814 10.504 37.9254 11 37.9254 11.608C37.9254 12.104 38.0614 12.536 38.3334 12.904C38.6214 13.272 39.0534 13.616 39.6294 13.936C40.2054 14.256 40.9334 14.6 41.8134 14.968C42.4214 15.208 43.0454 15.488 43.6854 15.808C44.3254 16.128 44.9174 16.512 45.4614 16.96C46.0054 17.392 46.4454 17.904 46.7814 18.496C47.1174 19.072 47.2854 19.752 47.2854 20.536C47.2854 21.48 47.0294 22.32 46.5174 23.056C46.0054 23.792 45.2854 24.368 44.3574 24.784C43.4454 25.184 42.3734 25.384 41.1414 25.384C40.5014 25.384 39.8054 25.28 39.0534 25.072C38.3174 24.88 37.6214 24.592 36.9654 24.208L37.0374 25.216H35.1894V19.6H36.7734C36.9974 20.944 37.5094 21.96 38.3094 22.648C39.1254 23.32 40.0934 23.656 41.2134 23.656C41.7894 23.656 42.2934 23.552 42.7254 23.344C43.1574 23.136 43.4934 22.864 43.7334 22.528C43.9734 22.176 44.0934 21.8 44.0934 21.4C44.0934 20.84 43.8934 20.376 43.4934 20.008C43.1094 19.64 42.6214 19.328 42.0294 19.072C41.4534 18.816 40.8614 18.568 40.2534 18.328C39.4854 18.008 38.7654 17.672 38.0934 17.32C37.4374 16.952 36.8614 16.536 36.3654 16.072C35.8694 15.608 35.4854 15.08 35.2134 14.488C34.9414 13.88 34.8054 13.184 34.8054 12.4C34.8054 11.904 34.9014 11.392 35.0934 10.864C35.2854 10.32 35.5974 9.824 36.0294 9.376C36.4614 8.912 37.0374 8.536 37.7574 8.248C38.4774 7.96 39.3654 7.816 40.4214 7.816C41.0614 7.816 41.7574 7.912 42.5094 8.104C43.2774 8.296 43.9334 8.584 44.4774 8.968L44.3814 7.984H46.2534V13.576H44.6694ZM48.8903 25V23.44C49.3383 23.44 49.6583 23.352 49.8503 23.176C50.0423 23 50.1623 22.752 50.2103 22.432C50.2743 22.096 50.3063 21.72 50.3063 21.304V17.272C50.3063 16.984 50.3143 16.664 50.3303 16.312C50.3463 15.944 50.3703 15.584 50.4023 15.232C50.1463 15.248 49.8423 15.264 49.4902 15.28C49.1543 15.28 48.8983 15.288 48.7223 15.304V13.48C49.4583 13.48 50.0823 13.44 50.5943 13.36C51.1063 13.28 51.5063 13.184 51.7943 13.072C52.0983 12.96 52.3063 12.856 52.4183 12.76H53.5943C53.6263 12.92 53.6423 13.12 53.6423 13.36C53.6583 13.6 53.6743 13.8 53.6903 13.96C54.2343 13.544 54.8183 13.216 55.4423 12.976C56.0823 12.736 56.6823 12.616 57.2423 12.616C57.9783 12.616 58.5863 12.752 59.0663 13.024C59.5463 13.28 59.9303 13.672 60.2183 14.2C60.7943 13.72 61.4263 13.336 62.1143 13.048C62.8183 12.76 63.4903 12.616 64.1303 12.616C65.4263 12.616 66.4023 12.992 67.0583 13.744C67.7303 14.48 68.0663 15.768 68.0663 17.608V21.136C68.0663 21.36 68.0583 21.68 68.0423 22.096C68.0263 22.496 68.0023 22.88 67.9703 23.248C68.2263 23.216 68.5063 23.2 68.8103 23.2C69.1303 23.184 69.3703 23.176 69.5303 23.176V25H63.4583V23.44C63.8263 23.44 64.0903 23.352 64.2503 23.176C64.4263 23 64.5383 22.752 64.5863 22.432C64.6343 22.096 64.6583 21.72 64.6583 21.304V17.632C64.6423 16.592 64.4663 15.872 64.1303 15.472C63.8103 15.072 63.3783 14.864 62.8343 14.848C62.4183 14.832 62.0263 14.904 61.6583 15.064C61.3063 15.224 60.9863 15.416 60.6983 15.64C60.7783 15.96 60.8343 16.312 60.8663 16.696C60.8983 17.08 60.9143 17.488 60.9143 17.92C60.9143 18.464 60.9143 19 60.9143 19.528C60.9143 20.056 60.9143 20.592 60.9143 21.136C60.9143 21.36 60.9063 21.68 60.8903 22.096C60.8743 22.496 60.8503 22.88 60.8183 23.248C61.0743 23.216 61.3543 23.2 61.6583 23.2C61.9623 23.184 62.2023 23.176 62.3783 23.176V25H56.1863V23.44C56.6023 23.44 56.8983 23.352 57.0743 23.176C57.2663 23 57.3863 22.752 57.4343 22.432C57.4823 22.096 57.5063 21.72 57.5063 21.304L57.4823 17.56C57.4823 16.52 57.3303 15.808 57.0263 15.424C56.7223 15.04 56.2983 14.84 55.7543 14.824C55.3543 14.824 54.9783 14.912 54.6263 15.088C54.2903 15.264 53.9863 15.472 53.7143 15.712C53.7143 15.92 53.7143 16.12 53.7143 16.312C53.7143 16.504 53.7143 16.704 53.7143 16.912V21.136C53.7143 21.36 53.7063 21.68 53.6903 22.096C53.6743 22.496 53.6503 22.88 53.6183 23.248C53.8743 23.216 54.1383 23.2 54.4103 23.2C54.6823 23.184 54.8983 23.176 55.0583 23.176V25H48.8903ZM77.6404 25C77.6084 24.776 77.5844 24.592 77.5684 24.448C77.5684 24.288 77.5604 24.104 77.5444 23.896C77.0004 24.44 76.4244 24.824 75.8164 25.048C75.2084 25.272 74.5924 25.384 73.9684 25.384C72.9444 25.384 72.1444 25.08 71.5684 24.472C70.9924 23.864 70.7044 23.104 70.7044 22.192C70.7044 21.424 70.8964 20.768 71.2804 20.224C71.6804 19.68 72.2004 19.24 72.8404 18.904C73.4964 18.552 74.2164 18.288 75.0004 18.112C75.8004 17.92 76.6004 17.808 77.4004 17.776V16.528C77.4004 16.112 77.3444 15.736 77.2324 15.4C77.1364 15.064 76.9604 14.8 76.7044 14.608C76.4644 14.416 76.1204 14.328 75.6724 14.344C75.3684 14.36 75.0724 14.424 74.7844 14.536C74.4964 14.648 74.2484 14.808 74.0404 15.016C74.1684 15.16 74.2484 15.32 74.2804 15.496C74.3124 15.656 74.3284 15.8 74.3284 15.928C74.3284 16.248 74.2004 16.584 73.9444 16.936C73.6884 17.272 73.2804 17.432 72.7204 17.416C72.2404 17.4 71.8724 17.232 71.6164 16.912C71.3604 16.592 71.2324 16.216 71.2324 15.784C71.2324 15.144 71.4564 14.592 71.9044 14.128C72.3684 13.648 72.9844 13.28 73.7524 13.024C74.5204 12.752 75.3684 12.616 76.2964 12.616C77.7044 12.616 78.7924 12.984 79.5604 13.72C80.3444 14.44 80.7364 15.6 80.7364 17.2C80.7364 17.744 80.7364 18.208 80.7364 18.592C80.7364 18.976 80.7284 19.36 80.7124 19.744C80.7124 20.128 80.7124 20.592 80.7124 21.136C80.7124 21.36 80.7044 21.68 80.6884 22.096C80.6724 22.496 80.6484 22.88 80.6164 23.248C80.8884 23.216 81.1764 23.2 81.4804 23.2C81.7844 23.184 82.0164 23.176 82.1764 23.176V25H77.6404ZM77.3764 19.48C76.9284 19.528 76.5044 19.608 76.1044 19.72C75.7044 19.832 75.3524 19.984 75.0484 20.176C74.7604 20.368 74.5284 20.6 74.3524 20.872C74.1924 21.144 74.1124 21.448 74.1124 21.784C74.1284 22.232 74.2724 22.552 74.5444 22.744C74.8164 22.936 75.1284 23.032 75.4804 23.032C75.8484 23.032 76.1924 22.952 76.5124 22.792C76.8324 22.632 77.1204 22.424 77.3764 22.168C77.3764 22.008 77.3764 21.856 77.3764 21.712C77.3764 21.552 77.3764 21.392 77.3764 21.232C77.3764 20.944 77.3764 20.656 77.3764 20.368C77.3764 20.064 77.3764 19.768 77.3764 19.48ZM83.5543 23.44C84.0023 23.44 84.3223 23.352 84.5143 23.176C84.7063 23 84.8263 22.752 84.8743 22.432C84.9383 22.096 84.9703 21.72 84.9703 21.304V17.272C84.9703 16.984 84.9783 16.664 84.9943 16.312C85.0103 15.944 85.0343 15.584 85.0663 15.232C84.8103 15.248 84.5063 15.264 84.1543 15.28C83.8183 15.28 83.5623 15.288 83.3863 15.304V13.48H84.3463C84.9703 13.48 85.5383 13.4 86.0503 13.24C86.5783 13.08 86.9223 12.92 87.0823 12.76H88.2583C88.2903 12.92 88.3143 13.224 88.3303 13.672C88.3463 14.104 88.3543 14.488 88.3543 14.824C88.7863 14.296 89.1943 13.872 89.5783 13.552C89.9623 13.232 90.3383 13 90.7063 12.856C91.0903 12.696 91.4743 12.616 91.8583 12.616C92.4183 12.616 92.9063 12.776 93.3223 13.096C93.7383 13.4 93.9463 13.904 93.9463 14.608C93.9463 14.848 93.8903 15.104 93.7783 15.376C93.6663 15.632 93.4903 15.848 93.2503 16.024C93.0103 16.2 92.6823 16.288 92.2663 16.288C91.9463 16.288 91.6183 16.192 91.2823 16C90.9463 15.808 90.7543 15.44 90.7063 14.896C90.3863 14.896 90.0663 15.032 89.7463 15.304C89.4263 15.56 89.1383 15.872 88.8823 16.24C88.6423 16.592 88.4743 16.92 88.3783 17.224V21.136C88.3783 21.36 88.3703 21.68 88.3543 22.096C88.3383 22.496 88.3143 22.88 88.2823 23.248C88.5383 23.216 88.8183 23.2 89.1223 23.2C89.4423 23.184 89.6823 23.176 89.8423 23.176V25H83.5543V23.44ZM99.8376 25.384C99.3576 25.384 98.8936 25.328 98.4456 25.216C97.9976 25.104 97.5976 24.896 97.2456 24.592C96.8936 24.272 96.6136 23.808 96.4056 23.2C96.1976 22.592 96.0936 21.784 96.0936 20.776L96.1416 14.992H94.5096V13C95.0056 12.984 95.4856 12.816 95.9496 12.496C96.4136 12.176 96.8056 11.76 97.1256 11.248C97.4616 10.736 97.6856 10.2 97.7976 9.64H99.5736L99.5496 13H102.598V14.848L99.5496 14.92L99.5256 20.824C99.5256 21.192 99.5576 21.56 99.6216 21.928C99.7016 22.28 99.8456 22.576 100.054 22.816C100.262 23.04 100.566 23.152 100.966 23.152C101.19 23.152 101.494 23.072 101.878 22.912C102.278 22.752 102.702 22.352 103.15 21.712L104.302 22.792C103.87 23.432 103.422 23.928 102.958 24.28C102.494 24.632 102.046 24.888 101.614 25.048C101.198 25.208 100.83 25.304 100.51 25.336C100.19 25.368 99.9656 25.384 99.8376 25.384Z" fill="white"/>
</svg>
