<svg width="62" height="62" viewBox="0 0 62 62" fill="none" xmlns="http://www.w3.org/2000/svg">
<rect x="1.5" y="1.5" width="59" height="59" rx="29.5" fill="url(#paint0_radial_24_3160)"/>
<rect x="1.5" y="1.5" width="59" height="59" rx="29.5" stroke="url(#paint1_linear_24_3160)" stroke-width="3"/>
<path d="M40.2284 35.095H34.9434C34.634 35.095 34.3372 35.2179 34.1184 35.4367C33.8996 35.6555 33.7767 35.9522 33.7767 36.2616C33.7767 36.5711 33.8996 36.8678 34.1184 37.0866C34.3372 37.3054 34.634 37.4283 34.9434 37.4283H37.7434C36.4565 38.7732 34.7968 39.7025 32.9777 40.0969C31.1586 40.4914 29.2631 40.3328 27.5348 39.6418C25.8064 38.9507 24.3242 37.7586 23.2786 36.2187C22.2329 34.6788 21.6716 32.8614 21.6667 31C21.6667 30.6906 21.5438 30.3938 21.325 30.175C21.1062 29.9562 20.8095 29.8333 20.5 29.8333C20.1906 29.8333 19.8939 29.9562 19.6751 30.175C19.4563 30.3938 19.3334 30.6906 19.3334 31C19.3395 33.2782 20.0126 35.5049 21.2696 37.405C22.5265 39.3052 24.3123 40.7957 26.4066 41.6927C28.5008 42.5897 30.8119 42.8539 33.0546 42.4527C35.2972 42.0515 37.3733 41.0024 39.0267 39.435V41.5C39.0267 41.8094 39.1496 42.1061 39.3684 42.3249C39.5872 42.5437 39.884 42.6666 40.1934 42.6666C40.5028 42.6666 40.7995 42.5437 41.0183 42.3249C41.2371 42.1061 41.36 41.8094 41.36 41.5V36.25C41.3572 35.9486 41.2377 35.6599 41.0268 35.4446C40.8158 35.2293 40.5297 35.104 40.2284 35.095ZM31 19.3333C28.0092 19.3418 25.1358 20.4987 22.9734 22.565V20.5C22.9734 20.1906 22.8505 19.8938 22.6317 19.675C22.4129 19.4562 22.1161 19.3333 21.8067 19.3333C21.4973 19.3333 21.2005 19.4562 20.9817 19.675C20.763 19.8938 20.64 20.1906 20.64 20.5V25.75C20.64 26.0594 20.763 26.3561 20.9817 26.5749C21.2005 26.7937 21.4973 26.9166 21.8067 26.9166H27.0567C27.3661 26.9166 27.6629 26.7937 27.8817 26.5749C28.1005 26.3561 28.2234 26.0594 28.2234 25.75C28.2234 25.4406 28.1005 25.1438 27.8817 24.925C27.6629 24.7062 27.3661 24.5833 27.0567 24.5833H24.2567C25.5429 23.2392 27.2015 22.3101 29.0195 21.9153C30.8375 21.5205 32.7321 21.678 34.4599 22.3677C36.1878 23.0573 37.6701 24.2476 38.7166 25.7857C39.7632 27.3238 40.3262 29.1396 40.3334 31C40.3334 31.3094 40.4563 31.6061 40.6751 31.8249C40.8939 32.0437 41.1906 32.1666 41.5 32.1666C41.8095 32.1666 42.1062 32.0437 42.325 31.8249C42.5438 31.6061 42.6667 31.3094 42.6667 31C42.6667 29.4679 42.3649 27.9508 41.7786 26.5353C41.1923 25.1199 40.333 23.8338 39.2496 22.7504C38.1663 21.6671 36.8801 20.8077 35.4647 20.2214C34.0492 19.6351 32.5321 19.3333 31 19.3333Z" fill="#006124"/>
<defs>
<radialGradient id="paint0_radial_24_3160" cx="0" cy="0" r="1" gradientUnits="userSpaceOnUse" gradientTransform="translate(47.075 30.6) rotate(120.651) scale(94.1541)">
<stop stop-color="#D5FFE0"/>
<stop offset="1" stop-color="#30F916" stop-opacity="0.55"/>
</radialGradient>
<linearGradient id="paint1_linear_24_3160" x1="9.19995" y1="10.7" x2="68.075" y2="58.6" gradientUnits="userSpaceOnUse">
<stop stop-color="#29F916" stop-opacity="0.21"/>
<stop offset="1" stop-color="#17EA0C"/>
</linearGradient>
</defs>
</svg>
