<svg width="62" height="62" viewBox="0 0 62 62" fill="none" xmlns="http://www.w3.org/2000/svg">
<rect x="1.5" y="1.5" width="59" height="59" rx="29.5" fill="url(#paint0_radial_24_3166)"/>
<rect x="1.5" y="1.5" width="59" height="59" rx="29.5" stroke="url(#paint1_linear_24_3166)" stroke-width="3"/>
<path d="M20.4999 29.8333V34.4918C20.4999 37.7958 20.4999 39.4478 21.5266 40.4745C22.5498 41.5 24.1994 41.5 27.4999 41.5H29.8333M37.4166 34.8885V33.3333M34.8196 39.6485C34.5151 39.1526 34.354 38.582 34.3541 38C34.3541 37.3933 34.5244 36.8287 34.8196 36.3515C35.3609 35.4718 36.3211 34.8885 37.4166 34.8885M37.4166 41.1115C38.5121 41.1115 39.4723 40.5282 40.0136 39.6485C40.3088 39.1713 40.4791 38.6067 40.4791 38C40.4791 37.3945 40.3088 36.8298 40.0136 36.3515C39.4723 35.4718 38.5121 34.8885 37.4166 34.8885M34.8196 36.3515L33.3333 35.4065M40.0136 36.3515L41.4999 35.4088M37.4166 42.6667V41.1115M37.4166 41.1115C36.3211 41.1115 35.3609 40.5282 34.8196 39.6485M34.8196 39.6485L33.3333 40.5935M40.0136 39.6485L41.4999 40.5923M37.7584 19.3368L24.1714 19.3707C22.1438 19.2657 21.6234 20.829 21.6234 21.5932C21.6234 22.2768 21.5359 23.2732 20.2934 25.1468C19.0498 27.0193 19.1431 27.5758 19.8443 28.8732C20.4253 29.9488 21.9046 30.3688 22.6769 30.44C25.1269 30.496 26.3193 28.3762 26.3193 26.8875C27.5349 30.629 30.9918 30.629 32.5318 30.2008C34.0753 29.7727 35.3971 28.2385 35.7086 26.8875C35.8906 28.5663 36.4436 29.5463 38.0734 30.2195C39.7639 30.916 41.2164 29.8508 41.9456 29.1672C42.6748 28.4847 43.1426 26.968 41.8429 25.3008C40.9469 24.1517 40.5736 23.069 40.4499 21.9467C40.3799 21.2957 40.3169 20.5968 39.8596 20.1523C39.1923 19.5025 38.2344 19.3065 37.7584 19.3368Z" stroke="#6F0080" stroke-width="1.75" stroke-linecap="round" stroke-linejoin="round"/>
<defs>
<radialGradient id="paint0_radial_24_3166" cx="0" cy="0" r="1" gradientUnits="userSpaceOnUse" gradientTransform="translate(31.1 31.1) rotate(89.8898) scale(52.0001)">
<stop stop-color="#F3D5FF"/>
<stop offset="1" stop-color="#EE16F9" stop-opacity="0.55"/>
</radialGradient>
<linearGradient id="paint1_linear_24_3166" x1="9.19995" y1="10.7" x2="59.2" y2="50.7" gradientUnits="userSpaceOnUse">
<stop stop-color="#E616F9" stop-opacity="0.46"/>
<stop offset="1" stop-color="#EA0CDB"/>
</linearGradient>
</defs>
</svg>
