<svg width="35" height="34" viewBox="0 0 35 34" fill="none" xmlns="http://www.w3.org/2000/svg">
<path d="M5.55799 11.5716L1.43002 11.3268C4.3884 3.7269 12.8827 -0.599469 21.1627 1.55092C29.9834 3.8437 35.2234 12.6196 32.865 21.1508C30.9146 28.2083 24.3787 32.8899 17.1851 33.0003" stroke="#F97316" stroke-width="2" stroke-linecap="round"/>
<path d="M17.4299 33.0003C8.62997 33.0003 1.43002 25.0003 1.43002 15.4004" stroke="#F97316" stroke-width="2" stroke-linecap="round" stroke-dasharray="0.5 3"/>
<path d="M19.9963 13.3556C19.4331 12.7636 18.0555 11.3764 15.8763 12.3636C13.6987 13.3476 13.3531 16.5172 16.6475 16.8548C18.1355 17.0068 19.1067 16.6788 19.9963 17.6068C20.8859 18.538 21.0507 21.1236 18.7787 21.8212C16.5067 22.5188 15.0331 21.3668 14.6379 21.0068M17.2827 10.6325V11.8964M17.2827 22.0356V23.4324" stroke="#F97316" stroke-width="2" stroke-linecap="round"/>
</svg>
