<svg width="20" height="20" viewBox="0 0 20 20" fill="none" xmlns="http://www.w3.org/2000/svg">
<path d="M12.9167 9.99998C12.9167 11.6108 11.6108 12.9166 10 12.9166C8.38918 12.9166 7.08334 11.6108 7.08334 9.99998C7.08334 8.38915 8.38918 7.08331 10 7.08331C11.6108 7.08331 12.9167 8.38915 12.9167 9.99998Z" stroke="#141B34" stroke-width="1.5"/>
<path d="M17.3255 7.62667C17.9974 8.7848 18.3333 9.36386 18.3333 10C18.3333 10.6361 17.9974 11.2152 17.3255 12.3733L15.7224 15.1365C15.0532 16.29 14.7185 16.8668 14.1683 17.1834C13.618 17.5 12.9501 17.5 11.6144 17.5L8.38555 17.5C7.04984 17.5 6.38199 17.5 5.83171 17.1834C5.28144 16.8668 4.94682 16.29 4.27758 15.1365L2.6745 12.3733C2.00261 11.2152 1.66666 10.6361 1.66666 10C1.66666 9.36386 2.00261 8.7848 2.67451 7.62667L4.27758 4.86351C4.94682 3.70997 5.28144 3.1332 5.83171 2.8166C6.38199 2.5 7.04984 2.5 8.38555 2.5L11.6144 2.5C12.9501 2.5 13.618 2.5 14.1683 2.8166C14.7185 3.1332 15.0532 3.70997 15.7224 4.86351L17.3255 7.62667Z" stroke="#141B34" stroke-width="1.5"/>
</svg>
