<svg width="20" height="20" viewBox="0 0 20 20" fill="none" xmlns="http://www.w3.org/2000/svg">
<path d="M18.0917 7.25836C19.1333 6.21669 18.6583 5.00002 18.0917 4.40836L15.5917 1.90836C14.5417 0.866689 13.3333 1.34169 12.7417 1.90836L11.325 3.33336H9.16666C7.58333 3.33336 6.66666 4.16669 6.19999 5.12502L2.49999 8.82502V12.1584L1.90833 12.7417C0.866658 13.7917 1.34166 15 1.90833 15.5917L4.40833 18.0917C4.85833 18.5417 5.34166 18.7084 5.79999 18.7084C6.39166 18.7084 6.93333 18.4167 7.25833 18.0917L9.50833 15.8334H12.5C13.9167 15.8334 14.6333 14.95 14.8917 14.0834C15.8333 13.8334 16.35 13.1167 16.5583 12.4167C17.85 12.0834 18.3333 10.8584 18.3333 10V7.50002H17.8417L18.0917 7.25836ZM16.6667 10C16.6667 10.375 16.5083 10.8334 15.8333 10.8334H15V11.6667C15 12.0417 14.8417 12.5 14.1667 12.5H13.3333V13.3334C13.3333 13.7084 13.175 14.1667 12.5 14.1667H8.82499L6.09166 16.9C5.83333 17.1417 5.68333 17 5.59166 16.9084L3.09999 14.425C2.85833 14.1667 2.99999 14.0167 3.09166 13.925L4.16666 12.8417V9.50836L5.83333 7.84169V9.16669C5.83333 10.175 6.49999 11.6667 8.33333 11.6667C10.1667 11.6667 10.8333 10.175 10.8333 9.16669H16.6667V10ZM16.9083 6.07502L15.4917 7.50002H9.16666V9.16669C9.16666 9.54169 9.00833 10 8.33333 10C7.65833 10 7.49999 9.54169 7.49999 9.16669V6.66669C7.49999 6.28336 7.64166 5.00002 9.16666 5.00002H12.0083L13.9083 3.10002C14.1667 2.85836 14.3167 3.00002 14.4083 3.09169L16.9 5.57502C17.1417 5.83336 17 5.98336 16.9083 6.07502Z" fill="black"/>
</svg>
