<svg width="20" height="20" viewBox="0 0 20 20" fill="none" xmlns="http://www.w3.org/2000/svg">
<path d="M16.0976 13.6699C15.6088 13.1806 15.0375 12.7813 14.4101 12.4902C15.2949 11.7734 15.8594 10.6797 15.8594 9.45309C15.8594 7.28903 14.0547 5.51364 11.8906 5.54684C9.75975 5.58005 8.04296 7.31638 8.04296 9.45309C8.04296 10.6797 8.60936 11.7734 9.49218 12.4902C8.86466 12.7811 8.2934 13.1805 7.80468 13.6699C6.73827 14.7383 6.1328 16.1484 6.09374 17.6523C6.09322 17.6732 6.09687 17.6939 6.10449 17.7133C6.11211 17.7327 6.12354 17.7504 6.1381 17.7653C6.15266 17.7803 6.17006 17.7921 6.18928 17.8002C6.20849 17.8083 6.22914 17.8125 6.24999 17.8125H7.34374C7.42772 17.8125 7.49803 17.7461 7.49999 17.6621C7.5371 16.5293 7.99608 15.4687 8.80272 14.664C9.2155 14.2491 9.70647 13.9201 10.2472 13.6961C10.788 13.4722 11.3678 13.3577 11.9531 13.3593C13.1426 13.3593 14.2617 13.8222 15.1035 14.664C15.9082 15.4687 16.3672 16.5293 16.4062 17.6621C16.4082 17.7461 16.4785 17.8125 16.5625 17.8125H17.6562C17.6771 17.8125 17.6977 17.8083 17.7169 17.8002C17.7362 17.7921 17.7536 17.7803 17.7681 17.7653C17.7827 17.7504 17.7941 17.7327 17.8017 17.7133C17.8094 17.6939 17.813 17.6732 17.8125 17.6523C17.7734 16.1484 17.168 14.7383 16.0976 13.6699ZM11.9531 11.9531C11.2851 11.9531 10.6562 11.6933 10.1855 11.2207C9.94931 10.9863 9.76271 10.7068 9.63688 10.3987C9.51104 10.0907 9.44854 9.76043 9.45311 9.4277C9.45897 8.78708 9.71483 8.16794 10.1621 7.70895C10.6308 7.22849 11.2578 6.96091 11.9277 6.95309C12.5898 6.94724 13.2324 7.20505 13.7051 7.66794C14.1894 8.14255 14.4551 8.77731 14.4551 9.45309C14.4551 10.1211 14.1953 10.748 13.7226 11.2207C13.4908 11.4537 13.215 11.6384 12.9112 11.7641C12.6075 11.8898 12.2818 11.9541 11.9531 11.9531ZM7.06053 9.96872C7.04296 9.7988 7.03319 9.62692 7.03319 9.45309C7.03319 9.14255 7.06249 8.83981 7.11718 8.54489C7.13085 8.47458 7.09374 8.40231 7.02928 8.37302C6.76366 8.25388 6.51952 8.08981 6.30858 7.88278C6.06003 7.64178 5.86444 7.35161 5.73429 7.0308C5.60415 6.70998 5.54231 6.36555 5.55272 6.0195C5.5703 5.39255 5.82225 4.79684 6.26171 4.34763C6.74413 3.85349 7.39257 3.58395 8.08202 3.59177C8.70507 3.59763 9.30663 3.83786 9.76171 4.26364C9.916 4.40817 10.0488 4.56833 10.1601 4.7402C10.1992 4.80075 10.2754 4.82614 10.3418 4.8027C10.6855 4.68356 11.0488 4.59958 11.4219 4.56052C11.5312 4.5488 11.5937 4.43161 11.5449 4.33395C10.9101 3.07809 9.61327 2.21091 8.11327 2.18747C5.94725 2.15427 4.14257 3.92966 4.14257 6.09177C4.14257 7.31833 4.70702 8.41208 5.59178 9.12888C4.97069 9.41599 4.39843 9.81247 3.90233 10.3086C2.83202 11.3769 2.22655 12.7871 2.18749 14.2929C2.18697 14.3138 2.19062 14.3345 2.19824 14.3539C2.20586 14.3733 2.21729 14.391 2.23185 14.406C2.24641 14.4209 2.26381 14.4327 2.28303 14.4408C2.30224 14.4489 2.32289 14.4531 2.34374 14.4531H3.43944C3.52343 14.4531 3.59374 14.3867 3.59569 14.3027C3.6328 13.1699 4.09178 12.1093 4.89843 11.3047C5.47264 10.7304 6.17577 10.332 6.94335 10.1386C7.01952 10.1191 7.0703 10.0468 7.06053 9.96872Z" fill="black"/>
</svg>
