<svg width="20" height="18" viewBox="0 0 20 18" fill="none" xmlns="http://www.w3.org/2000/svg">
<path d="M15.2368 4.18421C15.2368 5.92132 15.2368 6.78895 14.6971 7.32868C14.1574 7.86842 13.2897 7.86842 11.5526 7.86842H7.86841C6.13131 7.86842 5.26368 7.86842 4.72394 7.32868C4.1842 6.78895 4.1842 5.92132 4.1842 4.18421C4.1842 2.44711 4.1842 1.57947 4.72394 1.03974C5.26368 0.5 6.13131 0.5 7.86841 0.5H11.5526C13.2897 0.5 14.1574 0.5 14.6971 1.03974C15.2368 1.57947 15.2368 2.44711 15.2368 4.18421Z" stroke="black"/>
<path d="M15.2368 3.26316C14.504 3.26316 13.8012 2.97204 13.283 2.45385C12.7648 1.93565 12.4737 1.23283 12.4737 0.5M15.2368 5.10526C14.504 5.10526 13.8012 5.39638 13.283 5.91457C12.7648 6.43277 12.4737 7.13559 12.4737 7.86842M4.18421 3.26316C4.91704 3.26316 5.61986 2.97204 6.13805 2.45385C6.65625 1.93565 6.94736 1.23283 6.94736 0.5M4.18421 5.10526C4.91704 5.10526 5.61986 5.39638 6.13805 5.91457C6.65625 6.43277 6.94736 7.13559 6.94736 7.86842M3.26315 16.5153H5.34473C6.275 16.5153 7.21723 16.6129 8.12263 16.7989C9.73919 17.13 11.4022 17.1668 13.0318 16.9076C13.8313 16.7787 14.616 16.5807 15.3271 16.238C15.9682 15.9276 16.7538 15.492 17.2816 15.0029C17.8084 14.5147 18.3574 13.7162 18.746 13.0917C19.0813 12.5557 18.9192 11.8989 18.3905 11.5001C18.0933 11.2844 17.7354 11.1683 17.3682 11.1683C17.0009 11.1683 16.643 11.2844 16.3458 11.5001L14.6814 12.7574C14.0367 13.2455 13.3321 13.6941 12.493 13.8276C12.3917 13.8436 12.2858 13.858 12.1753 13.8709M12.1753 13.8709L12.0739 13.882M12.1753 13.8709C12.3227 13.831 12.4578 13.755 12.5685 13.6499C12.7076 13.5299 12.8211 13.3833 12.9024 13.2187C12.9838 13.0542 13.0313 12.8749 13.0421 12.6916C13.0529 12.5084 13.0268 12.3248 12.9654 12.1518C12.904 11.9787 12.8085 11.8198 12.6846 11.6843C12.5646 11.5511 12.4248 11.4371 12.2701 11.3463C9.69394 9.80908 5.6846 10.9797 3.26315 12.6975M12.1753 13.8709C12.142 13.8783 12.108 13.882 12.0739 13.882M12.0739 13.882C11.5185 13.9376 10.9589 13.9389 10.4032 13.8857" stroke="black" stroke-linecap="round"/>
<path d="M3.26316 12.0131C3.26316 11.2501 2.6446 10.6316 1.88158 10.6316C1.11855 10.6316 0.5 11.2501 0.5 12.0131V16.6184C0.5 17.3814 1.11855 18 1.88158 18C2.6446 18 3.26316 17.3814 3.26316 16.6184V12.0131Z" stroke="black"/>
</svg>
